<?xml version="1.0" standalone="no"?>
<!DOCTYPE svg PUBLIC "-//W3C//DTD SVG 20010904//EN"
 "http://www.w3.org/TR/2001/REC-SVG-20010904/DTD/svg10.dtd">
<svg version="1.0" xmlns="http://www.w3.org/2000/svg"
 width="768.000000pt" height="768.000000pt" viewBox="0 0 768.000000 768.000000"
 preserveAspectRatio="xMidYMid meet">
<metadata>
Created by potrace 1.11, written by Peter Selinger 2001-2013
</metadata>
<g transform="translate(0.000000,768.000000) scale(0.100000,-0.100000)"
fill="#000000" stroke="none">
<path d="M3538 7676 c-1 -2 -34 -6 -73 -10 -38 -4 -86 -8 -105 -11 -55 -6
-223 -36 -231 -41 -4 -2 -20 -6 -36 -8 -111 -17 -432 -123 -608 -201 -33 -15
-61 -27 -62 -26 -2 0 -30 -15 -64 -34 -33 -19 -63 -35 -66 -35 -9 0 -128 -75
-131 -82 -2 -5 -8 -8 -14 -8 -6 0 -33 -16 -59 -35 -27 -19 -52 -35 -55 -35 -3
0 -12 -6 -19 -12 -22 -20 -38 -32 -65 -49 -14 -9 -37 -26 -50 -37 -14 -12 -59
-49 -100 -83 -109 -90 -312 -298 -409 -419 -86 -108 -226 -314 -279 -410 -79
-145 -192 -388 -192 -413 0 -5 -6 -23 -14 -40 -33 -76 -101 -308 -120 -412
-26 -135 -42 -244 -53 -345 -10 -93 -10 -482 1 -570 4 -36 9 -83 12 -105 2
-22 7 -51 10 -65 3 -14 7 -38 9 -55 17 -113 83 -373 122 -475 3 -8 7 -20 8
-25 3 -12 59 -153 82 -205 38 -88 125 -256 177 -341 71 -119 80 -133 86 -139
3 -3 21 -27 40 -55 19 -27 38 -52 42 -53 4 -2 8 -8 8 -14 0 -6 32 -49 72 -97
159 -190 345 -371 507 -491 19 -14 39 -29 46 -35 6 -5 18 -14 27 -20 8 -5 50
-34 92 -63 42 -28 81 -52 86 -52 6 0 10 -4 10 -9 0 -5 8 -11 18 -14 9 -4 35
-17 57 -30 84 -49 216 -117 229 -117 7 0 19 -7 26 -15 7 -9 15 -13 18 -11 3 3
17 -1 31 -8 51 -27 194 -83 231 -91 8 -2 42 -13 75 -24 32 -12 68 -23 80 -26
11 -2 58 -14 105 -26 47 -11 94 -23 105 -25 40 -8 131 -23 170 -29 23 -3 51
-7 63 -10 131 -25 604 -25 757 -1 11 2 23 2 27 0 6 -4 -119 -263 -132 -274 -3
-3 -15 -23 -26 -45 -28 -57 -170 -282 -185 -295 -3 -3 -8 -10 -10 -15 -12 -31
-210 -284 -312 -400 -66 -75 -296 -304 -371 -370 -25 -22 -88 -74 -140 -115
-52 -41 -95 -77 -95 -80 -1 -3 16 -4 36 -3 85 6 140 11 183 18 25 4 59 8 75
10 27 2 53 6 150 20 17 3 53 9 80 15 28 6 64 13 80 16 33 5 271 65 350 87 47
13 248 82 360 124 28 10 53 22 56 26 3 5 9 8 13 8 3 -1 22 6 42 14 20 8 38 15
41 15 14 0 316 154 415 212 153 89 357 224 403 265 7 7 16 13 19 13 4 0 19 11
34 24 41 37 65 57 121 101 28 22 51 43 51 47 0 5 4 8 9 8 19 0 299 272 383
372 24 28 50 58 58 67 9 9 36 41 60 71 25 30 53 64 62 74 10 11 20 28 24 38 3
10 9 18 14 18 5 0 19 17 31 38 13 20 26 39 29 42 11 9 140 199 140 206 0 3 15
28 33 53 17 26 43 69 57 96 14 28 28 52 32 55 9 7 186 370 190 390 2 8 5 17 8
20 5 4 73 176 76 190 0 3 5 16 11 30 31 73 125 396 139 475 3 17 11 55 19 85
7 30 16 73 19 95 3 22 8 52 11 68 9 51 14 80 19 121 3 23 8 64 12 91 32 249
36 659 9 885 -3 19 -7 60 -10 90 -9 84 -14 125 -15 125 -1 0 -3 11 -5 25 -1
14 -5 39 -9 55 -3 17 -9 46 -11 65 -5 31 -11 60 -30 145 -8 36 -43 178 -58
235 -13 51 -90 286 -104 320 -3 8 -7 17 -8 20 -1 3 -7 18 -13 33 -7 16 -12 30
-12 33 0 18 -128 281 -186 382 -30 52 -54 97 -54 102 0 5 -3 10 -8 12 -4 2
-31 39 -61 83 -29 44 -58 82 -62 83 -5 2 -9 8 -9 14 0 5 -6 15 -12 22 -7 7
-24 28 -38 46 -134 177 -365 399 -570 550 -41 30 -76 58 -78 62 -2 5 -8 8 -14
8 -5 0 -28 13 -51 28 -154 105 -367 217 -537 282 -47 17 -94 36 -105 41 -57
24 -315 99 -360 104 -11 1 -38 7 -60 13 -22 6 -58 14 -80 17 -22 3 -49 7 -60
9 -11 2 -45 6 -75 10 -30 4 -71 9 -90 12 -39 5 -516 14 -522 10z m-478 -1890
c68 -13 157 -32 165 -36 12 -6 64 -22 69 -22 3 1 42 -17 86 -39 44 -21 83 -39
86 -39 3 0 10 -5 17 -11 7 -5 26 -19 42 -29 62 -40 70 -46 104 -75 20 -16 60
-54 90 -83 l54 -52 77 74 c43 41 91 82 106 92 16 10 31 21 34 24 13 13 91 59
150 88 95 45 128 57 260 93 118 32 423 30 510 -3 14 -5 26 -9 28 -9 18 7 167
-48 249 -91 268 -139 452 -346 566 -633 59 -150 89 -405 63 -553 -3 -18 -8
-50 -11 -71 -3 -21 -15 -70 -26 -107 -11 -38 -21 -73 -23 -79 -1 -5 -10 -27
-19 -49 -9 -21 -17 -42 -17 -47 0 -5 -4 -9 -10 -9 -5 0 -10 -7 -10 -16 0 -33
-136 -220 -220 -304 -95 -94 -164 -145 -273 -204 -68 -37 -198 -89 -249 -101
-174 -39 -295 -47 -443 -30 -61 7 -70 9 -115 20 -14 4 -34 8 -45 10 -32 5
-115 35 -175 63 -30 14 -57 26 -60 27 -11 1 -154 94 -195 127 -16 12 -56 49
-88 81 -31 31 -61 57 -66 57 -4 0 -23 -17 -42 -38 -42 -47 -137 -125 -207
-170 -47 -30 -149 -85 -162 -87 -3 -1 -16 -6 -30 -12 -27 -12 -59 -24 -75 -29
-85 -24 -135 -35 -192 -44 -80 -13 -249 -16 -313 -6 -25 4 -56 9 -70 12 -72
12 -111 23 -215 62 -75 29 -187 84 -205 102 -3 3 -27 21 -55 39 -27 19 -52 37
-55 40 -3 4 -25 23 -49 45 -39 34 -87 86 -146 157 -93 113 -198 357 -218 509
-3 19 -6 35 -7 35 -4 0 -10 93 -9 160 0 140 14 229 54 355 21 69 81 208 95
220 3 3 10 16 16 30 33 74 210 271 293 326 23 14 41 31 41 35 0 5 6 9 14 9 8
0 21 6 28 13 37 34 239 127 308 142 22 5 171 34 195 38 32 5 257 0 295 -7z"/>
<path d="M2845 5219 c-86 -8 -136 -22 -210 -55 -60 -28 -168 -109 -193 -146
-9 -13 -19 -25 -23 -28 -17 -13 -71 -113 -89 -164 -86 -251 -7 -508 209 -679
94 -74 230 -115 372 -112 229 6 438 151 527 365 36 88 45 137 43 244 -1 156
-58 284 -175 401 -104 103 -211 157 -341 172 -21 2 -42 5 -45 7 -3 1 -36 -1
-75 -5z"/>
<path d="M4590 5205 c-47 -13 -151 -55 -160 -65 -3 -3 -24 -18 -47 -34 -99
-67 -207 -229 -229 -341 -4 -22 -9 -47 -10 -55 -5 -21 -5 -140 0 -170 28 -182
144 -347 303 -433 50 -27 119 -54 158 -63 42 -9 172 -12 215 -4 88 16 106 22
180 58 143 69 266 221 310 382 22 81 16 271 -10 320 -6 11 -8 20 -5 20 3 0
-12 35 -34 78 -107 203 -298 320 -526 319 -55 0 -120 -6 -145 -12z"/>
</g>
</svg>
